<svg width="96" height="93" viewBox="0 0 96 93" fill="none" xmlns="http://www.w3.org/2000/svg">
<g clip-path="url(#clip0_45_2)">
<path d="M47.6204 0C21.3259 0 0.0039978 21.3182 0.0039978 47.6164C0.0039978 68.6545 13.6475 86.5034 32.567 92.7995C34.9467 93.2403 35.8205 91.7664 35.8205 90.5087C35.8205 89.3734 35.7759 85.6225 35.7558 81.644C22.5089 84.524 19.7137 76.0256 19.7137 76.0256C17.5475 70.5219 14.4264 69.0581 14.4264 69.0581C10.1064 66.1029 14.7523 66.1639 14.7523 66.1639C19.5336 66.4995 22.0513 71.0706 22.0513 71.0706C26.2984 78.3499 33.1909 76.2455 35.908 75.0287C36.3354 71.9515 37.5693 69.8504 38.9312 68.6615C28.3549 67.4577 17.2369 63.3747 17.2369 45.1296C17.2369 39.9309 19.0969 35.683 22.1428 32.3484C21.6484 31.149 20.0187 26.3064 22.6041 19.7472C22.6041 19.7472 26.6027 18.4676 35.7022 24.6283C39.5004 23.5733 43.5738 23.0443 47.6204 23.0261C51.667 23.0443 55.7437 23.5729 59.5489 24.6283C68.6373 18.4679 72.6303 19.7476 72.6303 19.7476C75.222 26.306 73.5916 31.1494 73.0972 32.3484C76.1502 35.683 77.9975 39.9309 77.9975 45.1296C77.9975 63.4182 66.8584 67.4451 56.2552 68.624C57.9631 70.1015 59.4849 72.9994 59.4849 77.4418C59.4849 83.8127 59.4299 88.9404 59.4299 90.5087C59.4299 91.7761 60.287 93.2608 62.7005 92.7928C81.6096 86.49 95.236 68.6478 95.236 47.6167C95.236 21.3182 73.9171 0 47.6204 0ZM17.8381 67.8305C17.7331 68.0671 17.3608 68.1381 17.0219 67.9756C16.6763 67.8204 16.4825 67.4979 16.5941 67.2606C16.6968 67.0169 17.0699 66.9488 17.4143 67.1121C17.7603 67.2676 17.9575 67.5931 17.8381 67.8305ZM20.1802 69.9204C19.9532 70.1309 19.5091 70.0331 19.2078 69.7005C18.8964 69.3687 18.838 68.9245 19.0683 68.711C19.3026 68.5005 19.733 68.599 20.0451 68.9309C20.3569 69.2668 20.4171 69.7076 20.1802 69.9204ZM21.7872 72.5943C21.4952 72.7971 21.0183 72.607 20.7233 72.1836C20.4316 71.7603 20.4316 71.2525 20.7296 71.049C21.0253 70.8455 21.4952 71.0286 21.7939 71.4489C22.0848 71.8793 22.0848 72.3871 21.7868 72.5947L21.7872 72.5943ZM24.5043 75.6912C24.2435 75.9791 23.6874 75.9018 23.2804 75.5089C22.8641 75.125 22.7485 74.5804 23.0103 74.2925C23.2745 74.0038 23.8336 74.0849 24.2435 74.4748C24.6564 74.8579 24.7829 75.4066 24.5043 75.6912ZM28.0167 76.7365C27.9014 77.1097 27.3657 77.2793 26.8267 77.1208C26.288 76.9575 25.9357 76.5208 26.0444 76.1439C26.1563 75.7682 26.6943 75.5919 27.2374 75.7615C27.7753 75.9237 28.1287 76.3571 28.0167 76.7365ZM32.0135 77.1803C32.0269 77.5728 31.5697 77.8983 31.0035 77.9057C30.4343 77.9184 29.9734 77.6007 29.9671 77.2138C29.9671 76.8176 30.4143 76.4951 30.9838 76.4854C31.55 76.4743 32.0135 76.7897 32.0135 77.1803ZM35.9399 77.0297C36.0076 77.4128 35.6144 77.8064 35.052 77.9113C34.4996 78.0121 33.9877 77.7755 33.9174 77.3957C33.8489 77.0029 34.2496 76.6093 34.8013 76.5078C35.3645 76.4099 35.8681 76.6402 35.9399 77.0297Z" fill="#161614"/>
</g>
<defs>
<clipPath id="clip0_45_2">
<rect width="95.24" height="93" fill="white"/>
</clipPath>
</defs>
</svg>
