<svg width="114" height="93" viewBox="0 0 114 93" fill="none" xmlns="http://www.w3.org/2000/svg">
<g clip-path="url(#clip0_45_4)">
<path d="M113.917 11.3247C109.651 13.2144 105.127 14.4548 100.494 15.0046C105.32 12.1123 109.025 7.53212 110.77 2.07494C106.182 4.79724 101.163 6.71527 95.9292 7.74616C91.6659 3.20429 85.5924 0.365784 78.8702 0.365784C65.9632 0.365784 55.4987 10.8298 55.4987 23.7359C55.4987 25.5679 55.7056 27.3514 56.1039 29.0623C36.6807 28.0873 19.4601 18.7833 7.93299 4.64378C5.92169 8.09546 4.76921 12.1105 4.76921 16.3929C4.76921 24.5013 8.89547 31.6543 15.1661 35.8455C11.4547 35.7293 7.82507 34.7269 4.58009 32.922C4.57876 33.0199 4.57876 33.1178 4.57876 33.2161C4.57876 44.5395 12.6346 53.9854 23.3256 56.1324C19.8841 57.0684 16.2742 57.2054 12.7717 56.5329C15.7454 65.8178 24.3766 72.5743 34.6031 72.7634C26.6046 79.0313 16.5273 82.7678 5.57817 82.7678C3.69147 82.7678 1.83147 82.657 0.00306702 82.4412C10.3456 89.0722 22.6301 92.9413 35.8281 92.9413C78.8159 92.9413 102.323 57.3294 102.323 26.4463C102.323 25.4326 102.3 24.4248 102.255 23.4227C106.83 20.1151 110.779 16.0183 113.917 11.3247Z" fill="#55ACEE"/>
</g>
<defs>
<clipPath id="clip0_45_4">
<rect width="113.92" height="93" fill="white"/>
</clipPath>
</defs>
</svg>
